<?xml version="1.0" standalone="no"?><!DOCTYPE svg PUBLIC "-//W3C//DTD SVG 1.1//EN" "http://www.w3.org/Graphics/SVG/1.1/DTD/svg11.dtd"><svg t="1687010285790" class="icon" viewBox="0 0 1024 1024" version="1.1" xmlns="http://www.w3.org/2000/svg" p-id="9038" xmlns:xlink="http://www.w3.org/1999/xlink" width="200" height="200"><path d="M896 85.333333h-192c-12.8 0-21.333333 8.533333-21.333333 21.333334v42.666666c0 12.8 8.533333 21.333333 21.333333 21.333334h85.333333L561.066667 398.933333C509.866667 362.666667 450.133333 341.333333 384 341.333333c-164.266667 0-298.666667 134.4-298.666667 298.666667s134.4 298.666667 298.666667 298.666667 298.666667-134.4 298.666667-298.666667c0-68.266667-23.466667-130.133333-61.866667-181.333333L853.333333 226.133333V320c0 12.8 8.533333 21.333333 21.333334 21.333333h42.666666c12.8 0 21.333333-8.533333 21.333334-21.333333V128c0-23.466667-19.2-42.666667-42.666667-42.666667zM384 853.333333c-117.333333 0-213.333333-96-213.333333-213.333333s96-213.333333 213.333333-213.333333 213.333333 96 213.333333 213.333333-96 213.333333-213.333333 213.333333z" fill="#297AFF" p-id="9039"></path></svg>
